<?xml version="1.0" encoding="UTF-8" standalone="no"?>
<svg
   xmlns:dc="http://purl.org/dc/elements/1.1/"
   xmlns:cc="http://creativecommons.org/ns#"
   xmlns:rdf="http://www.w3.org/1999/02/22-rdf-syntax-ns#"
   xmlns:svg="http://www.w3.org/2000/svg"
   xmlns="http://www.w3.org/2000/svg"
   viewBox="0 0 149.67999 63.919998"
   height="63.919998"
   width="149.67999"
   xml:space="preserve"
   id="svg2"
   version="1.1"><metadata
     id="metadata8"><rdf:RDF><cc:Work
         rdf:about=""><dc:format>image/svg+xml</dc:format><dc:type
           rdf:resource="http://purl.org/dc/dcmitype/StillImage" /></cc:Work></rdf:RDF></metadata><defs
     id="defs6" /><g
     transform="matrix(1.3333333,0,0,-1.3333333,0,63.92)"
     id="g10"><g
       transform="scale(0.1)"
       id="g12"><path
         id="path14"
         style="fill:#231f20;fill-opacity:1;fill-rule:evenodd;stroke:none"
         d="m 120.703,212.195 c -16.418,0 -31.5507,-4.031 -45.4491,-12.066 C 61.3867,192.078 50.3438,180.762 42.1406,166.191 33.9258,151.66 29.8359,136.27 29.8359,120.012 c 0,-16.074 4.1289,-31.4886 12.3985,-46.1722 8.2734,-14.6992 19.3867,-26.1523 33.3437,-34.3593 13.961,-8.1797 28.9259,-12.2852 44.9099,-12.2852 16.121,0 31.407,4.0742 45.86,12.1914 14.422,8.1406 25.554,19.1211 33.34,32.9688 7.773,13.8672 11.667,29.4535 11.667,46.8355 0,26.446 -8.726,48.551 -26.199,66.329 -17.453,17.769 -38.933,26.675 -64.453,26.675 z m 118.313,22.91 V 5.61328 H 209.629 V 45.0664 C 197.266,30.0117 183.398,18.7227 168.027,11.2383 152.645,3.73047 135.82,0 117.551,0 85.1289,0 57.4297,11.7305 34.4531,35.2422 11.4844,58.7383 0,87.3047 0,120.969 c 0,32.976 11.6016,61.172 34.7773,84.617 23.1719,23.43 51.0547,35.113 83.6207,35.113 18.829,0 35.848,-3.929 51.082,-11.883 15.254,-7.91 28.633,-19.902 40.149,-35.918 v 42.207 h 29.387" /><path
         id="path16"
         style="fill:#231f20;fill-opacity:1;fill-rule:evenodd;stroke:none"
         d="m 381.008,212.195 c -16.406,0 -31.567,-4.031 -45.449,-12.066 -13.879,-8.051 -24.922,-19.367 -33.125,-33.938 -8.204,-14.531 -12.305,-29.921 -12.305,-46.179 0,-16.074 4.141,-31.4886 12.41,-46.1722 8.274,-14.6992 19.387,-26.1523 33.34,-34.3593 13.957,-8.1797 28.926,-12.2852 44.914,-12.2852 16.121,0 31.402,4.0742 45.855,12.1914 14.438,8.1406 25.547,19.1211 33.332,32.9688 7.786,13.8672 11.668,29.4535 11.668,46.8355 0,26.446 -8.718,48.551 -26.179,66.329 -17.473,17.769 -38.953,26.675 -64.461,26.675 z M 499.309,478.633 V 5.61328 H 469.922 V 45.0664 C 457.578,30.0117 443.699,18.7227 428.32,11.2383 412.938,3.73047 396.113,0 377.871,0 c -32.449,0 -60.156,11.7305 -83.125,35.2422 -22.961,23.4961 -34.433,52.0625 -34.433,85.7268 0,32.976 11.582,61.172 34.753,84.617 23.176,23.43 51.055,35.113 83.633,35.113 18.821,0 35.852,-4.004 51.098,-12.015 15.23,-8.008 28.621,-20.063 40.125,-36.079 v 286.028 h 29.387" /><path
         id="path18"
         style="fill:#231f20;fill-opacity:1;fill-rule:evenodd;stroke:none"
         d="m 948.762,232.664 h 29.402 V 5.1875 h -29.402 z m 14.597,246.754 c 6.692,0 12.411,-2.387 17.188,-7.176 4.726,-4.808 7.121,-10.586 7.121,-17.355 0,-6.621 -2.395,-12.332 -7.121,-17.102 -4.777,-4.812 -10.496,-7.219 -17.188,-7.219 -6.589,0 -12.238,2.407 -16.98,7.219 -4.77,4.77 -7.121,10.481 -7.121,17.102 0,6.769 2.351,12.547 7.121,17.355 4.742,4.789 10.391,7.176 16.98,7.176" /><path
         id="path20"
         style="fill:#231f20;fill-opacity:1;fill-rule:nonzero;stroke:none"
         d="m 1046.51,478.633 h 29.4 V 232.766 h 46.67 v -25.532 h -46.67 V 5.12891 h -29.4 V 207.234 h -40.18 v 25.532 h 40.18 v 245.867" /><path
         id="path22"
         style="fill:#db1f26;fill-opacity:1;fill-rule:evenodd;stroke:none"
         d="m 716.453,478.633 h 7.094 l 99.766,-304.735 66.199,304.735 h 35.117 L 827.02,70.0664 820.266,69.6953 719.492,375.473 614.277,70.0664 607.488,70.4609 515.129,478.633 h 35.113 l 66.184,-304.735 99.797,304.735 h 7.09 -6.86" /><path
         id="path24"
         style="fill:#231f20;fill-opacity:1;fill-rule:nonzero;stroke:none"
         d="m 547.805,34.8359 c -1.516,2.3985 -3.391,4.2188 -5.617,5.4571 -2.227,1.2383 -4.727,1.8633 -7.508,1.8633 -4.668,0 -8.45,-1.6211 -11.379,-4.8125 -2.918,-3.1954 -4.383,-7.3555 -4.383,-12.461 0,-2.2773 0.391,-4.4219 1.16,-6.4531 0.781,-2.0234 1.926,-3.8125 3.399,-5.3945 1.511,-1.543 3.195,-2.7032 5.058,-3.4727 1.863,-0.78516 3.914,-1.16406 6.145,-1.16406 4.199,0 7.625,1.25781 10.269,3.78906 2.641,2.5195 3.989,5.832 4.067,9.8906 h -12.961 v 3.0117 h 16.711 V 24.668 c 0,-6.0821 -1.645,-10.8594 -4.914,-14.3086 -3.262,-3.45706 -7.754,-5.1719 -13.489,-5.1719 -5.703,0 -10.308,1.84375 -13.836,5.5352 -3.523,3.6914 -5.285,8.5351 -5.285,14.5312 0,2.7539 0.449,5.3438 1.34,7.8047 0.891,2.4375 2.168,4.5703 3.848,6.3828 1.816,1.9727 3.867,3.4414 6.14,4.4141 2.285,0.9804 4.836,1.457 7.641,1.457 3.809,0 7.078,-0.7031 9.805,-2.0977 2.714,-1.4062 4.812,-3.457 6.289,-6.1835 z M 604.348,6.19922 V 44.4531 h 3.418 V 9.46484 h 12.871 V 6.19922 Z m 82.547,2.10156 c 2.226,0 4.328,0.42188 6.32,1.26172 1.988,0.8203 3.765,2.0469 5.371,3.6523 1.551,1.6094 2.742,3.4571 3.57,5.5235 0.84,2.0625 1.25,4.2305 1.25,6.5156 0,2.2969 -0.41,4.4649 -1.238,6.5156 -0.82,2.0469 -2.012,3.8828 -3.582,5.5274 -1.566,1.6015 -3.344,2.8203 -5.332,3.6484 -1.992,0.8399 -4.113,1.25 -6.359,1.25 -2.239,0 -4.329,-0.4101 -6.297,-1.25 -1.965,-0.8281 -3.75,-2.0469 -5.344,-3.6484 -1.57,-1.6602 -2.766,-3.4961 -3.594,-5.5274 -0.82,-2.0351 -1.23,-4.2031 -1.23,-6.5156 0,-2.293 0.41,-4.4726 1.23,-6.5156 0.828,-2.0469 2.024,-3.8945 3.594,-5.5235 1.582,-1.621 3.34,-2.8437 5.293,-3.67574 1.953,-0.82812 4.07,-1.23828 6.348,-1.23828 z M 707.02,25.2539 c 0,-2.7031 -0.504,-5.2656 -1.512,-7.7031 -1.004,-2.4219 -2.461,-4.5899 -4.363,-6.4844 -1.934,-1.91796 -4.114,-3.37109 -6.543,-4.37499 -2.434,-1 -5.012,-1.50391 -7.707,-1.50391 -2.707,0 -5.274,0.50391 -7.684,1.50391 -2.434,1.0039 -4.602,2.45703 -6.523,4.37499 -1.918,1.9297 -3.372,4.1094 -4.375,6.5117 -1,2.4219 -1.504,4.9727 -1.504,7.6758 0,2.7344 0.504,5.3125 1.504,7.7422 1.003,2.4336 2.457,4.6094 4.375,6.5547 1.882,1.8867 4.042,3.332 6.445,4.3047 2.422,0.9804 5.008,1.457 7.762,1.457 2.773,0 5.371,-0.4766 7.793,-1.4727 2.421,-0.9804 4.582,-2.4257 6.457,-4.289 1.921,-1.9453 3.375,-4.1211 4.382,-6.5547 0.996,-2.4297 1.493,-5.0078 1.493,-7.7422 z m 55.363,2.1953 h 4.258 c 3.132,0 5.339,0.5196 6.64,1.5664 1.289,1.043 1.934,2.7813 1.934,5.2227 0,2.625 -0.637,4.4844 -1.887,5.5586 -1.258,1.0703 -3.484,1.6172 -6.687,1.6172 h -4.258 z m 0,-18.23826 h 4.363 c 2.484,0 4.192,0.10547 5.129,0.3125 0.938,0.21094 1.738,0.56636 2.383,1.07426 0.808,0.625 1.445,1.4804 1.933,2.5937 0.481,1.1172 0.711,2.2891 0.711,3.5391 0,1.5429 -0.261,2.8867 -0.797,4.0429 -0.519,1.1524 -1.261,2.0196 -2.21,2.5938 -0.641,0.3945 -1.407,0.6641 -2.293,0.8242 -0.872,0.1719 -2.247,0.25 -4.114,0.25 h -5.105 z M 758.965,6.19922 V 44.4531 h 6.531 c 2.856,0 4.914,-0.1445 6.176,-0.4218 1.266,-0.2696 2.344,-0.7579 3.238,-1.4336 1.242,-0.9571 2.192,-2.1368 2.844,-3.5157 0.652,-1.3789 0.976,-2.9218 0.976,-4.5781 0,-2.0547 -0.527,-3.7734 -1.574,-5.1953 -1.035,-1.4375 -2.476,-2.3828 -4.304,-2.832 2.421,-0.3555 4.296,-1.3477 5.671,-2.9532 1.372,-1.5976 2.051,-3.6289 2.051,-6.0898 0,-1.7813 -0.261,-3.3789 -0.801,-4.7695 -0.527,-1.4024 -1.328,-2.5977 -2.402,-3.60941 -1.094,-1.04688 -2.422,-1.78125 -3.953,-2.20703 -1.543,-0.4336 -4.172,-0.64844 -7.883,-0.64844 z m 77.937,15.94138 h 13.086 l -6.414,16.6367 z m -9.597,-15.94138 16.504,39.76958 15.8,-39.76958 h -3.718 l -4.797,12.96098 h -15.34 L 830.77,6.19922 Z m 80.918,0 V 44.4531 h 3.418 V 9.46484 h 12.871 V 6.19922 h -16.289" /></g></g></svg>