<?xml version="1.0" encoding="utf-8"?>
<!-- Generator: Adobe Illustrator 16.0.0, SVG Export Plug-In . SVG Version: 6.00 Build 0)  -->
<!DOCTYPE svg PUBLIC "-//W3C//DTD SVG 1.1//EN" "http://www.w3.org/Graphics/SVG/1.1/DTD/svg11.dtd">
<svg version="1.1"
	 id="svg2" xmlns:dc="http://purl.org/dc/elements/1.1/" xmlns:cc="http://creativecommons.org/ns#" xmlns:rdf="http://www.w3.org/1999/02/22-rdf-syntax-ns#" xmlns:svg="http://www.w3.org/2000/svg"
	 xmlns="http://www.w3.org/2000/svg" xmlns:xlink="http://www.w3.org/1999/xlink" x="0px" y="0px" width="149.68px"
	 height="63.92px" viewBox="0 0 149.68 63.92" enable-background="new 0 0 149.68 63.92" xml:space="preserve">
<path id="path14" fill="#FFFFFF" d="M29.806,32.771c-1.679,0-3.226,0.412-4.646,1.233c-1.417,0.822-2.546,1.979-3.385,3.468
	c-0.839,1.485-1.258,3.06-1.258,4.721c0,1.643,0.422,3.218,1.268,4.72s1.982,2.673,3.408,3.511c1.427,0.837,2.957,1.257,4.59,1.257
	c1.648,0,3.211-0.417,4.688-1.246c1.474-0.832,2.612-1.955,3.408-3.37c0.794-1.417,1.192-3.011,1.192-4.788
	c0-2.702-0.893-4.963-2.678-6.779C34.609,33.682,32.414,32.771,29.806,32.771z M41.898,30.43v23.456h-3.004v-4.032
	c-1.264,1.539-2.681,2.693-4.252,3.457c-1.572,0.769-3.292,1.149-5.159,1.149c-3.313,0-6.145-1.198-8.493-3.602
	c-2.348-2.401-3.521-5.322-3.521-8.763c0-3.371,1.186-6.253,3.555-8.649c2.368-2.395,5.218-3.589,8.547-3.589
	c1.925,0,3.663,0.401,5.221,1.215c1.56,0.809,2.927,2.034,4.104,3.671V30.43H41.898"/>
<path id="path16" fill="#FFFFFF" d="M56.411,32.771c-1.677,0-3.227,0.412-4.646,1.233c-1.418,0.822-2.547,1.979-3.386,3.468
	c-0.839,1.485-1.258,3.06-1.258,4.721c0,1.643,0.423,3.218,1.269,4.72s1.981,2.673,3.407,3.511c1.427,0.837,2.957,1.257,4.592,1.257
	c1.647,0,3.209-0.417,4.687-1.246c1.476-0.832,2.61-1.955,3.406-3.37c0.796-1.417,1.193-3.011,1.193-4.788
	c0-2.702-0.891-4.963-2.676-6.779C61.214,33.682,59.019,32.771,56.411,32.771z M68.503,5.538v48.348h-3.004v-4.032
	c-1.262,1.539-2.681,2.693-4.252,3.457c-1.572,0.769-3.292,1.149-5.156,1.149c-3.317,0-6.149-1.198-8.497-3.602
	c-2.347-2.401-3.52-5.322-3.52-8.763c0-3.371,1.184-6.253,3.553-8.649c2.368-2.395,5.219-3.589,8.548-3.589
	c1.924,0,3.665,0.409,5.223,1.229c1.558,0.818,2.926,2.051,4.102,3.688V5.538H68.503"/>
<path id="path18" fill="#FFFFFF" d="M114.443,30.679h3.006V53.93h-3.006V30.679z M115.935,5.458c0.685,0,1.269,0.244,1.757,0.734
	c0.483,0.491,0.728,1.082,0.728,1.773c0,0.677-0.244,1.261-0.728,1.748c-0.488,0.492-1.072,0.738-1.757,0.738
	c-0.673,0-1.251-0.246-1.735-0.738c-0.487-0.487-0.728-1.071-0.728-1.748c0-0.692,0.24-1.282,0.728-1.773
	C114.684,5.702,115.262,5.458,115.935,5.458"/>
<path id="path20" fill="#FFFFFF" d="M124.434,5.538h3.005v25.131h4.771v2.608h-4.771v20.658h-3.005V33.277h-4.106v-2.608h4.106
	V5.538"/>
<path id="path22" fill="#DB1F26" d="M90.698,5.538h0.726l10.197,31.148l6.767-31.148h3.589L102,47.298l-0.691,0.039l-10.3-31.255
	L80.254,47.298l-0.693-0.04l-9.44-41.72h3.589l6.765,31.148L90.675,5.538H91.4H90.698"/>
<path id="path24" fill="#FFFFFF" d="M73.46,50.899c-0.155-0.245-0.347-0.431-0.574-0.558s-0.483-0.19-0.768-0.19
	c-0.477,0-0.863,0.165-1.162,0.491s-0.448,0.752-0.448,1.274c0,0.232,0.04,0.452,0.118,0.659c0.08,0.207,0.197,0.391,0.348,0.552
	c0.154,0.157,0.326,0.275,0.517,0.355c0.191,0.079,0.4,0.118,0.628,0.118c0.43,0,0.779-0.129,1.05-0.388
	c0.271-0.257,0.408-0.596,0.416-1.011h-1.325v-0.308h1.709v0.043c0,0.622-0.169,1.11-0.503,1.462
	c-0.333,0.354-0.792,0.529-1.379,0.529c-0.583,0-1.053-0.188-1.414-0.565c-0.359-0.378-0.54-0.872-0.54-1.485
	c0-0.281,0.046-0.546,0.137-0.798c0.092-0.25,0.222-0.467,0.394-0.652c0.186-0.202,0.396-0.352,0.628-0.451
	c0.233-0.1,0.494-0.149,0.78-0.149c0.39,0,0.725,0.072,1.003,0.214c0.277,0.145,0.491,0.354,0.643,0.633L73.46,50.899z
	 M79.24,53.826v-3.909h0.35v3.576h1.315v0.333H79.24z M87.677,53.611c0.228,0,0.442-0.043,0.646-0.128
	c0.202-0.084,0.385-0.21,0.549-0.374c0.158-0.165,0.279-0.354,0.364-0.565c0.086-0.21,0.128-0.432,0.128-0.665
	c0-0.234-0.042-0.456-0.126-0.666c-0.084-0.209-0.206-0.396-0.366-0.564c-0.16-0.164-0.343-0.289-0.545-0.374
	c-0.204-0.085-0.421-0.127-0.65-0.127c-0.229,0-0.442,0.042-0.644,0.127s-0.384,0.21-0.547,0.374
	c-0.16,0.17-0.282,0.356-0.366,0.564s-0.126,0.43-0.126,0.666c0,0.234,0.042,0.457,0.126,0.665c0.084,0.21,0.206,0.398,0.366,0.565
	c0.162,0.165,0.342,0.29,0.542,0.375C87.228,53.57,87.445,53.611,87.677,53.611L87.677,53.611z M89.735,51.879
	c0,0.276-0.052,0.538-0.155,0.787c-0.103,0.248-0.251,0.47-0.446,0.663c-0.197,0.196-0.42,0.344-0.668,0.447
	c-0.249,0.102-0.513,0.153-0.788,0.153c-0.276,0-0.539-0.052-0.785-0.153c-0.249-0.104-0.471-0.251-0.667-0.447
	c-0.196-0.198-0.345-0.42-0.447-0.666c-0.103-0.248-0.154-0.508-0.154-0.784c0-0.279,0.052-0.543,0.154-0.792
	c0.103-0.248,0.251-0.471,0.447-0.67c0.192-0.192,0.413-0.34,0.659-0.439c0.247-0.1,0.512-0.149,0.793-0.149
	c0.283,0,0.549,0.05,0.797,0.151c0.247,0.101,0.468,0.247,0.659,0.438c0.197,0.199,0.346,0.422,0.448,0.67
	C89.684,51.336,89.735,51.6,89.735,51.879z M95.393,51.655h0.436c0.319,0,0.546-0.055,0.678-0.16
	c0.132-0.107,0.198-0.285,0.198-0.535c0-0.268-0.065-0.458-0.192-0.567c-0.129-0.109-0.356-0.166-0.684-0.166h-0.436V51.655z
	 M95.393,53.519h0.446c0.253,0,0.428-0.011,0.523-0.032s0.179-0.058,0.244-0.109c0.082-0.063,0.147-0.151,0.198-0.266
	c0.048-0.113,0.072-0.233,0.072-0.361c0-0.158-0.027-0.296-0.082-0.413c-0.053-0.117-0.129-0.207-0.226-0.266
	c-0.065-0.04-0.144-0.067-0.234-0.084c-0.089-0.018-0.229-0.025-0.421-0.025h-0.521V53.519z M95.043,53.826v-3.909h0.668
	c0.291,0,0.502,0.015,0.631,0.043c0.13,0.027,0.24,0.077,0.331,0.146c0.127,0.098,0.225,0.218,0.291,0.358
	c0.066,0.142,0.1,0.299,0.1,0.469c0,0.209-0.054,0.386-0.161,0.531c-0.105,0.146-0.253,0.243-0.439,0.289
	c0.247,0.036,0.438,0.138,0.579,0.302s0.21,0.371,0.21,0.623c0,0.182-0.027,0.345-0.082,0.487c-0.054,0.144-0.136,0.265-0.245,0.368
	c-0.112,0.107-0.248,0.183-0.404,0.226c-0.158,0.045-0.427,0.066-0.806,0.066H95.043z M103.01,52.197h1.337l-0.655-1.701
	L103.01,52.197z M102.029,53.826l1.688-4.064l1.614,4.064h-0.38l-0.49-1.324h-1.568l-0.509,1.324H102.029z M110.299,53.826v-3.909
	h0.35v3.576h1.315v0.333H110.299"/>
</svg>
