<?xml version="1.0" encoding="utf-8"?>
<!-- Generator: Adobe Illustrator 16.0.0, SVG Export Plug-In . SVG Version: 6.00 Build 0)  -->
<!DOCTYPE svg PUBLIC "-//W3C//DTD SVG 1.1//EN" "http://www.w3.org/Graphics/SVG/1.1/DTD/svg11.dtd">
<svg version="1.1"
	 id="svg2" xmlns:dc="http://purl.org/dc/elements/1.1/" xmlns:cc="http://creativecommons.org/ns#" xmlns:rdf="http://www.w3.org/1999/02/22-rdf-syntax-ns#" xmlns:svg="http://www.w3.org/2000/svg"
	 xmlns="http://www.w3.org/2000/svg" xmlns:xlink="http://www.w3.org/1999/xlink" x="0px" y="0px" width="149.68px"
	 height="63.92px" viewBox="0 0 149.68 63.92" enable-background="new 0 0 149.68 63.92" xml:space="preserve">
<g id="g10" transform="matrix(1.3333333,0,0,-1.3333333,0,63.92)">
	<g id="g12" transform="scale(0.1)">
		<path id="path14" fill="#231F20" d="M223.541,233.614c-12.587,0-24.188-3.091-34.845-9.25
			c-10.627-6.167-19.094-14.839-25.386-26.008c-6.292-11.14-9.43-22.947-9.43-35.405c0-12.319,3.164-24.134,9.503-35.398
			c6.346-11.265,14.865-20.046,25.565-26.331c10.701-6.277,22.174-9.426,34.424-9.426c12.36,0,24.075,3.127,35.16,9.346
			c11.056,6.24,19.589,14.663,25.558,25.276c5.958,10.627,8.943,22.581,8.943,35.904c0,20.273-6.691,37.222-20.083,50.845
			C259.568,226.788,243.104,233.614,223.541,233.614z M314.233,251.177V75.257h-22.526v30.242
			c-9.478-11.543-20.105-20.2-31.89-25.928c-11.792-5.764-24.69-8.621-38.698-8.621c-24.851,0-46.084,8.987-63.699,27.012
			c-17.607,18.01-26.411,39.917-26.411,65.72c0,25.283,8.895,46.897,26.66,64.871c17.765,17.959,39.137,26.917,64.102,26.917
			c14.436,0,27.477-3.01,39.155-9.111c11.697-6.064,21.954-15.256,30.78-27.532v32.351H314.233"/>
		<path id="path16" fill="#231F20" d="M423.085,233.614c-12.576,0-24.199-3.091-34.838-9.25
			c-10.638-6.167-19.105-14.839-25.397-26.008c-6.288-11.14-9.43-22.947-9.43-35.405c0-12.319,3.171-24.134,9.51-35.398
			c6.343-11.265,14.861-20.046,25.558-26.331c10.701-6.277,22.178-9.426,34.435-9.426c12.356,0,24.071,3.127,35.149,9.346
			c11.071,6.24,19.581,14.663,25.551,25.276c5.969,10.627,8.947,22.581,8.947,35.904c0,20.273-6.683,37.222-20.068,50.845
			C459.106,226.788,442.641,233.614,423.085,233.614z M513.774,437.868V75.257h-22.526v30.242
			c-9.467-11.543-20.105-20.2-31.89-25.928c-11.792-5.764-24.694-8.621-38.676-8.621c-24.877,0-46.117,8.987-63.728,27.012
			c-17.6,18.01-26.393,39.917-26.393,65.72c0,25.283,8.877,46.897,26.642,64.871c17.765,17.959,39.141,26.917,64.113,26.917
			c14.425,0,27.484-3.069,39.17-9.214c11.678-6.138,21.943-15.381,30.762-27.656v219.269H513.774"/>
		<path id="path18" fill="#231F20" d="M858.32,249.31h22.544V74.927H858.32V249.31z M869.511,438.469
			c5.134,0,9.514-1.831,13.176-5.504c3.625-3.684,5.457-8.112,5.457-13.301c0-5.076-1.831-9.456-5.457-13.11
			c-3.662-3.691-8.042-5.533-13.176-5.533c-5.046,0-9.382,1.842-13.015,5.533c-3.655,3.655-5.457,8.035-5.457,13.11
			c0,5.189,1.802,9.617,5.457,13.301C860.129,436.637,864.465,438.469,869.511,438.469"/>
		<path id="path20" fill="#231F20" d="M933.254,437.868h22.537V249.383h35.779V229.82H955.79V74.883h-22.537V229.82h-30.798v19.563
			h30.798V437.868"/>
		<path id="path22" fill="#DB1F26" d="M680.231,437.868h5.442l76.479-233.61l50.75,233.61h26.917l-74.817-313.202l-5.186-0.293
			l-77.249,234.412l-80.662-234.119l-5.2,0.3l-70.803,312.902h26.917l50.735-233.61l76.509,233.61h5.435H680.231"/>
		<path id="path24" fill="#231F20" d="M550.952,97.654c-1.165,1.838-2.6,3.23-4.307,4.182s-3.622,1.428-5.757,1.428
			c-3.574,0-6.475-1.238-8.719-3.684c-2.241-2.446-3.362-5.64-3.362-9.558c0-1.743,0.304-3.391,0.89-4.944
			c0.597-1.553,1.479-2.93,2.607-4.138c1.157-1.179,2.446-2.065,3.875-2.666c1.432-0.593,3.003-0.886,4.709-0.886
			c3.223,0,5.845,0.967,7.874,2.908c2.025,1.926,3.058,4.468,3.12,7.581h-9.939v2.307h12.814v-0.322
			c0-4.666-1.263-8.328-3.768-10.964c-2.501-2.651-5.944-3.97-10.342-3.97c-4.373,0-7.899,1.414-10.605,4.241
			c-2.699,2.834-4.054,6.541-4.054,11.14c0,2.109,0.348,4.094,1.029,5.984c0.685,1.875,1.663,3.501,2.952,4.893
			c1.392,1.516,2.966,2.637,4.706,3.384c1.75,0.747,3.706,1.121,5.856,1.121c2.919,0,5.431-0.542,7.518-1.611
			c2.084-1.077,3.688-2.651,4.823-4.739L550.952,97.654z M594.296,75.703v29.319h2.622V78.201h9.866v-2.498H594.296z
			 M657.578,77.315c1.707,0,3.318,0.322,4.849,0.959c1.516,0.63,2.886,1.575,4.116,2.805c1.187,1.238,2.095,2.651,2.732,4.241
			c0.645,1.575,0.959,3.237,0.959,4.988c0,1.758-0.315,3.42-0.945,4.995c-0.63,1.567-1.545,2.974-2.747,4.233
			c-1.201,1.23-2.571,2.168-4.087,2.805c-1.531,0.637-3.157,0.952-4.878,0.952c-1.714,0-3.318-0.315-4.827-0.952
			s-2.878-1.575-4.102-2.805c-1.201-1.274-2.117-2.673-2.747-4.233s-0.945-3.223-0.945-4.995c0-1.758,0.315-3.428,0.945-4.988
			c0.63-1.575,1.545-2.988,2.747-4.241c1.216-1.238,2.563-2.175,4.065-2.813C654.208,77.622,655.834,77.315,657.578,77.315
			L657.578,77.315z M673.01,90.308c0-2.073-0.388-4.036-1.165-5.903c-0.769-1.86-1.882-3.523-3.347-4.973
			c-1.479-1.472-3.149-2.578-5.01-3.354c-1.868-0.762-3.845-1.15-5.911-1.15c-2.073,0-4.043,0.388-5.889,1.15
			c-1.868,0.776-3.53,1.882-5.002,3.354c-1.472,1.487-2.585,3.149-3.354,4.995c-0.769,1.86-1.157,3.809-1.157,5.881
			c0,2.095,0.388,4.072,1.157,5.94c0.769,1.86,1.882,3.53,3.354,5.024c1.443,1.443,3.098,2.549,4.944,3.296
			c1.853,0.747,3.838,1.121,5.947,1.121c2.124,0,4.116-0.374,5.977-1.135c1.853-0.754,3.508-1.853,4.944-3.281
			c1.479-1.494,2.593-3.164,3.362-5.024C672.629,94.38,673.01,92.403,673.01,90.308z M715.446,91.985h3.267
			c2.395,0,4.094,0.41,5.083,1.201c0.989,0.806,1.487,2.139,1.487,4.014c0,2.007-0.491,3.435-1.443,4.255
			c-0.967,0.82-2.673,1.245-5.127,1.245h-3.267V91.985z M715.446,78.01h3.347c1.897,0,3.208,0.081,3.926,0.242
			s1.34,0.432,1.831,0.82c0.615,0.476,1.106,1.135,1.487,1.992c0.359,0.85,0.542,1.75,0.542,2.71c0,1.187-0.205,2.219-0.615,3.098
			c-0.396,0.879-0.967,1.553-1.692,1.992c-0.491,0.3-1.077,0.505-1.758,0.63c-0.667,0.132-1.721,0.19-3.157,0.19h-3.911V78.01z
			 M712.824,75.703v29.319h5.01c2.183,0,3.765-0.11,4.731-0.322c0.974-0.205,1.802-0.579,2.483-1.099
			c0.952-0.732,1.685-1.633,2.183-2.688c0.498-1.062,0.747-2.241,0.747-3.516c0-1.567-0.403-2.893-1.208-3.984
			c-0.791-1.099-1.897-1.824-3.296-2.168c1.853-0.271,3.289-1.033,4.343-2.263s1.575-2.783,1.575-4.673
			c0-1.362-0.205-2.585-0.615-3.655c-0.403-1.077-1.018-1.985-1.838-2.761c-0.842-0.806-1.86-1.37-3.032-1.692
			c-1.187-0.337-3.201-0.498-6.042-0.498H712.824z M772.575,87.92h10.027l-4.915,12.759L772.575,87.92z M765.214,75.703
			l12.656,30.483l12.107-30.483h-2.849l-3.677,9.932h-11.763l-3.816-9.932H765.214z M827.243,75.703v29.319h2.622V78.201h9.866
			v-2.498H827.243"/>
	</g>
</g>
</svg>
