<svg xmlns="http://www.w3.org/2000/svg" viewBox="0 0 112.26 47.94"><defs><style>.cls-1,.cls-2{fill:#fff;}.cls-1,.cls-3{fill-rule:evenodd;}.cls-3{fill:#da2128;}</style></defs><title>adwitglobal-light</title><path class="cls-1" d="M207.39,144.85v23h-2.94v-4a12.46,12.46,0,0,1-4.16,3.39,11.36,11.36,0,0,1-5,1.12,11.2,11.2,0,0,1-8.31-3.52,11.84,11.84,0,0,1-3.44-8.58A11.64,11.64,0,0,1,187,147.8a11.36,11.36,0,0,1,8.37-3.51,10.84,10.84,0,0,1,5.11,1.19,11.5,11.5,0,0,1,4,3.59v-4.22Zm-11.83,2.29a8.9,8.9,0,0,0-7.86,4.6,9.26,9.26,0,0,0,0,9.24,9.07,9.07,0,0,0,3.33,3.43,8.76,8.76,0,0,0,4.5,1.23,9.22,9.22,0,0,0,4.58-1.22,8.59,8.59,0,0,0,3.34-3.29,9.51,9.51,0,0,0,1.16-4.69,9.08,9.08,0,0,0-2.62-6.63A8.66,8.66,0,0,0,195.56,147.14Z" transform="translate(-183.49 -120.42)"/><path class="cls-1" d="M233.42,120.5v47.3h-2.94v-4a12.36,12.36,0,0,1-4.16,3.39,11.36,11.36,0,0,1-5,1.12,11.2,11.2,0,0,1-8.31-3.52,11.84,11.84,0,0,1-3.44-8.58A11.64,11.64,0,0,1,213,147.8a11.36,11.36,0,0,1,8.37-3.51,10.85,10.85,0,0,1,5.11,1.2,11.67,11.67,0,0,1,4,3.61V120.5Zm-11.83,26.64a8.9,8.9,0,0,0-7.86,4.6,9.26,9.26,0,0,0,0,9.24,9,9,0,0,0,3.34,3.43,8.69,8.69,0,0,0,4.49,1.23,9.22,9.22,0,0,0,4.58-1.22,8.52,8.52,0,0,0,3.34-3.29,9.51,9.51,0,0,0,1.16-4.69,9.08,9.08,0,0,0-2.62-6.63A8.66,8.66,0,0,0,221.59,147.14Z" transform="translate(-183.49 -120.42)"/><path class="cls-1" d="M279.82,120.42a2.34,2.34,0,0,1,1.72.72,2.44,2.44,0,0,1,0,3.44,2.34,2.34,0,0,1-1.72.72,2.28,2.28,0,0,1-1.69-.72,2.41,2.41,0,0,1,0-3.44,2.28,2.28,0,0,1,1.69-.72m-1.46,24.67h2.94v22.75h-2.94Z" transform="translate(-183.49 -120.42)"/><polygon class="cls-2" points="104.65 0.08 107.59 0.08 107.59 24.66 112.26 24.66 112.26 27.22 107.59 27.22 107.59 47.43 104.65 47.43 104.65 27.22 100.63 27.22 100.63 24.66 104.65 24.66 104.65 0.08"/><polygon class="cls-3" points="71.64 0.08 71.72 0.08 72.35 0.08 82.33 30.55 88.95 0.08 92.46 0.08 82.7 40.94 82.03 40.97 71.95 10.39 61.43 40.94 60.75 40.9 51.51 0.08 55.02 0.08 61.64 30.55 71.62 0.08 72.25 0.08 72.33 0.08 71.64 0.08"/><path class="cls-2" d="M274.31,167.74v-3.82h.34v3.49h1.29v.33Zm-8.09,0,1.65-4,1.58,4h-.37l-.48-1.3h-1.54l-.5,1.3Zm1-1.59h1.31l-.65-1.67Zm-7.8,1.59v-3.82H260a3,3,0,0,1,.61,0,.71.71,0,0,1,.33.14,1,1,0,0,1,.28.35,1,1,0,0,1,.1.46.81.81,0,0,1-.16.52.68.68,0,0,1-.43.28.93.93,0,0,1,.57.3.88.88,0,0,1,.2.61,1.16,1.16,0,0,1-.08.47.93.93,0,0,1-.63.59,3.62,3.62,0,0,1-.79.06Zm.35-.3h.43a2.81,2.81,0,0,0,.51,0,.53.53,0,0,0,.24-.11.67.67,0,0,0,.2-.26,1,1,0,0,0,0-.76.63.63,0,0,0-.22-.26.78.78,0,0,0-.23-.08,2.25,2.25,0,0,0-.41,0h-.51Zm0-1.82h.42a1.13,1.13,0,0,0,.67-.16.67.67,0,0,0,.19-.52.69.69,0,0,0-.19-.56,1,1,0,0,0-.67-.16h-.42Zm-5.54.21a2,2,0,0,1-.15.78,2,2,0,0,1-.44.64,1.87,1.87,0,0,1-.65.44,2,2,0,0,1-.77.15,2,2,0,0,1-.77-.15,2.07,2.07,0,0,1-1.09-1.09,2,2,0,0,1-.15-.77,2,2,0,0,1,.15-.77A2.1,2.1,0,0,1,251.4,164a2.21,2.21,0,0,1,.78-.14,2.08,2.08,0,0,1,.78.15,1.81,1.81,0,0,1,.64.43,2,2,0,0,1,.44.65A2,2,0,0,1,254.19,165.83Zm-2,1.7a1.51,1.51,0,0,0,.63-.13,1.6,1.6,0,0,0,.54-.36,1.77,1.77,0,0,0,.35-.55,1.72,1.72,0,0,0,0-1.31,1.77,1.77,0,0,0-.35-.55,1.6,1.6,0,0,0-.54-.36,1.51,1.51,0,0,0-.63-.13,1.45,1.45,0,0,0-.63.13,1.6,1.6,0,0,0-.54.36,2.17,2.17,0,0,0-.36.55,1.78,1.78,0,0,0-.12.65,1.84,1.84,0,0,0,.12.66,2,2,0,0,0,.36.55,1.88,1.88,0,0,0,.53.37A1.69,1.69,0,0,0,252.18,167.53Zm-8.26.21v-3.82h.34v3.49h1.29v.33Zm-5.65-2.86a1.63,1.63,0,0,0-.56-.55,1.61,1.61,0,0,0-.75-.19,1.47,1.47,0,0,0-1.14.49,1.92,1.92,0,0,0-.32,1.89,1.54,1.54,0,0,0,.34.54,1.39,1.39,0,0,0,.5.34,1.56,1.56,0,0,0,.62.12,1.41,1.41,0,0,0,1-.38,1.32,1.32,0,0,0,.41-1h-1.3v-.3h1.67v0a2,2,0,0,1-.49,1.43,1.73,1.73,0,0,1-1.35.52,1.81,1.81,0,0,1-1.38-.55,2,2,0,0,1-.53-1.46,2.29,2.29,0,0,1,.14-.78,1.69,1.69,0,0,1,.38-.63,1.86,1.86,0,0,1,.61-.45,2.3,2.3,0,0,1,1.75.07,1.45,1.45,0,0,1,.63.62Z" transform="translate(-183.49 -120.42)"/></svg>