<?xml version="1.0" encoding="utf-8"?>
<!-- Generator: Adobe Illustrator 16.0.0, SVG Export Plug-In . SVG Version: 6.00 Build 0)  -->
<!DOCTYPE svg PUBLIC "-//W3C//DTD SVG 1.1//EN" "http://www.w3.org/Graphics/SVG/1.1/DTD/svg11.dtd">
<svg version="1.1"
	 id="svg2" xmlns:dc="http://purl.org/dc/elements/1.1/" xmlns:cc="http://creativecommons.org/ns#" xmlns:rdf="http://www.w3.org/1999/02/22-rdf-syntax-ns#" xmlns:svg="http://www.w3.org/2000/svg"
	 xmlns="http://www.w3.org/2000/svg" xmlns:xlink="http://www.w3.org/1999/xlink" x="0px" y="0px" width="149.68px"
	 height="63.92px" viewBox="-0.66 41.38 149.68 63.92" enable-background="new -0.66 41.38 149.68 63.92" xml:space="preserve">
<g id="g10" transform="matrix(1.3333333,0,0,-1.3333333,0,63.92)">
	<g id="g12" transform="scale(0.1)">
		<path id="path14" fill="#231F20" d="M95.092,552.664c-12.59,0-24.192-3.091-34.849-9.25
			c-10.627-6.167-19.094-14.839-25.386-26.008c-6.292-11.14-9.434-22.947-9.434-35.405c0-12.319,3.164-24.133,9.507-35.398
			s14.868-20.046,25.562-26.331c10.701-6.277,22.178-9.426,34.424-9.426c12.363,0,24.082,3.127,35.16,9.346
			c11.052,6.24,19.592,14.663,25.562,25.276c5.955,10.627,8.943,22.581,8.943,35.911c0,20.266-6.694,37.222-20.083,50.845
			C131.109,545.838,114.655,552.664,95.092,552.664z M185.777,570.228v-175.92h-22.529v30.242
			c-9.478-11.543-20.105-20.2-31.89-25.928C119.57,392.857,106.672,390,92.668,390c-24.851,0-46.084,8.987-63.699,27.012
			c-17.607,18.01-26.411,39.917-26.411,65.72c0,25.283,8.892,46.897,26.66,64.871c17.761,17.959,39.133,26.917,64.102,26.917
			c14.436,0,27.469-3.01,39.152-9.111c11.697-6.064,21.951-15.256,30.776-27.532v32.351H185.777"/>
		<path id="path16" fill="#231F20" d="M294.63,552.664c-12.576,0-24.199-3.091-34.841-9.25
			c-10.635-6.167-19.102-14.839-25.393-26.008c-6.292-11.14-9.434-22.947-9.434-35.405c0-12.319,3.171-24.133,9.514-35.398
			s14.861-20.046,25.554-26.331c10.701-6.277,22.178-9.426,34.438-9.426c12.356,0,24.067,3.127,35.145,9.346
			c11.067,6.24,19.578,14.663,25.547,25.276c5.969,10.627,8.95,22.581,8.95,35.911c0,20.266-6.68,37.222-20.068,50.845
			C330.646,545.838,314.185,552.664,294.63,552.664z M385.314,756.918V394.307h-22.529v30.242
			c-9.463-11.543-20.105-20.2-31.89-25.928c-11.788-5.764-24.686-8.621-38.668-8.621c-24.88,0-46.121,8.987-63.728,27.012
			c-17.6,18.01-26.396,39.917-26.396,65.72c0,25.283,8.877,46.897,26.646,64.871c17.761,17.959,39.141,26.917,64.109,26.917
			c14.429,0,27.488-3.069,39.166-9.214c11.682-6.138,21.943-15.381,30.762-27.656v219.269H385.314"/>
		<path id="path18" fill="#231F20" d="M729.853,568.36h22.544V393.978h-22.544V568.36z M741.044,757.519
			c5.134,0,9.514-1.831,13.176-5.504c3.625-3.684,5.457-8.112,5.457-13.301c0-5.076-1.831-9.456-5.457-13.11
			c-3.662-3.691-8.042-5.533-13.176-5.533c-5.046,0-9.382,1.842-13.015,5.533c-3.655,3.655-5.457,8.035-5.457,13.11
			c0,5.189,1.802,9.617,5.457,13.301C731.662,755.688,735.998,757.519,741.044,757.519"/>
		<path id="path20" fill="#231F20" d="M804.787,756.918h22.537V568.433h35.779V548.87h-35.779V393.934h-22.537V548.87h-30.798
			v19.563h30.798V756.918"/>
		<path id="path22" fill="#DB1F26" d="M551.768,756.918h5.442l76.483-233.61l50.742,233.61h26.917l-74.81-313.202l-5.186-0.293
			l-77.252,234.412l-80.658-234.119l-5.2,0.3l-70.803,312.902h26.917l50.735-233.61l76.505,233.61h5.435H551.768"/>
		<path id="path24" fill="#231F20" d="M422.492,416.705c-1.165,1.838-2.6,3.23-4.307,4.182s-3.625,1.428-5.757,1.428
			c-3.574,0-6.475-1.238-8.716-3.684s-3.362-5.64-3.362-9.558c0-1.743,0.3-3.391,0.886-4.944c0.601-1.553,1.479-2.93,2.607-4.138
			c1.157-1.179,2.446-2.065,3.875-2.666c1.436-0.593,3.003-0.886,4.709-0.886c3.223,0,5.845,0.967,7.874,2.908
			c2.029,1.926,3.062,4.468,3.12,7.581h-9.939v2.307h12.817v-0.322c0-4.666-1.267-8.328-3.772-10.964
			c-2.498-2.651-5.94-3.97-10.342-3.97c-4.373,0-7.896,1.414-10.605,4.241c-2.695,2.834-4.05,6.541-4.05,11.14
			c0,2.109,0.344,4.094,1.025,5.984c0.688,1.875,1.663,3.501,2.952,4.893c1.392,1.516,2.966,2.637,4.709,3.384
			c1.75,0.747,3.706,1.121,5.852,1.121c2.922,0,5.435-0.542,7.522-1.604c2.08-1.084,3.684-2.651,4.819-4.746L422.492,416.705z
			 M465.837,394.754v29.319h2.622v-26.821h9.866v-2.498H465.837z M529.118,396.365c1.707,0,3.318,0.322,4.849,0.959
			c1.516,0.63,2.886,1.575,4.116,2.805c1.187,1.238,2.091,2.651,2.728,4.241c0.645,1.575,0.959,3.237,0.959,4.988
			c0,1.758-0.315,3.42-0.945,4.995c-0.63,1.567-1.542,2.974-2.743,4.233c-1.201,1.23-2.571,2.168-4.087,2.805
			c-1.531,0.637-3.157,0.952-4.878,0.952c-1.714,0-3.318-0.315-4.827-0.952s-2.878-1.575-4.102-2.805
			c-1.201-1.274-2.117-2.673-2.747-4.233s-0.945-3.223-0.945-4.995c0-1.758,0.315-3.428,0.945-4.988
			c0.63-1.575,1.545-2.988,2.747-4.241c1.216-1.238,2.563-2.175,4.065-2.813C525.749,396.673,527.375,396.365,529.118,396.365
			L529.118,396.365z M544.547,409.358c0-2.073-0.388-4.036-1.165-5.903c-0.769-1.86-1.882-3.523-3.344-4.973
			c-1.479-1.472-3.149-2.578-5.01-3.354c-1.868-0.762-3.845-1.15-5.911-1.15c-2.073,0-4.043,0.388-5.889,1.15
			c-1.868,0.776-3.53,1.882-5.002,3.354c-1.472,1.487-2.585,3.149-3.354,4.995c-0.769,1.86-1.157,3.809-1.157,5.881
			c0,2.095,0.388,4.072,1.157,5.94c0.769,1.86,1.882,3.53,3.354,5.024c1.443,1.443,3.098,2.549,4.944,3.296
			c1.853,0.747,3.838,1.121,5.947,1.121c2.124,0,4.116-0.374,5.977-1.135c1.853-0.754,3.508-1.853,4.944-3.281
			c1.476-1.494,2.589-3.164,3.358-5.024C544.166,413.431,544.547,411.453,544.547,409.358z M586.987,411.036h3.267
			c2.395,0,4.094,0.41,5.083,1.201c0.989,0.806,1.487,2.139,1.487,4.014c0,2.007-0.491,3.435-1.443,4.255
			c-0.967,0.82-2.673,1.245-5.127,1.245h-3.267V411.036z M586.987,397.061h3.347c1.897,0,3.208,0.081,3.926,0.242
			s1.34,0.432,1.831,0.82c0.615,0.476,1.106,1.135,1.487,1.992c0.359,0.85,0.542,1.75,0.542,2.71c0,1.187-0.205,2.219-0.615,3.098
			c-0.396,0.879-0.967,1.553-1.692,1.992c-0.491,0.3-1.077,0.505-1.758,0.63c-0.667,0.132-1.721,0.19-3.157,0.19h-3.911V397.061z
			 M584.365,394.754v29.319h5.01c2.183,0,3.765-0.11,4.731-0.322c0.974-0.205,1.802-0.579,2.483-1.099
			c0.952-0.732,1.685-1.633,2.183-2.688c0.498-1.062,0.747-2.241,0.747-3.516c0-1.567-0.403-2.893-1.208-3.984
			c-0.791-1.099-1.897-1.824-3.296-2.168c1.853-0.271,3.289-1.033,4.343-2.263s1.575-2.783,1.575-4.673
			c0-1.362-0.205-2.585-0.615-3.655c-0.403-1.077-1.018-1.985-1.838-2.761c-0.842-0.806-1.86-1.37-3.032-1.692
			c-1.187-0.337-3.201-0.498-6.042-0.498H584.365z M644.108,406.971h10.027l-4.915,12.759L644.108,406.971z M636.755,394.754
			l12.649,30.483l12.107-30.483h-2.849l-3.677,9.932h-11.755l-3.823-9.932H636.755z M698.776,394.754v29.319h2.622v-26.821h9.866
			v-2.498H698.776"/>
	</g>
</g>
<path fill="#FFFFFF" d="M1.34,82.301V62.682c0-5.414,4.453-9.867,10.351-9.867c3.25,0,6.5,1.324,8.425,4.092
	c1.925-2.768,5.174-4.092,8.424-4.092c5.897,0,10.351,4.453,10.351,9.867v19.619h-5.295V63.886c0-3.67-2.046-6.018-5.175-6.018
	c-3.431,0-5.657,1.927-5.657,6.861v17.571h-5.295V64.729c0-4.935-2.227-6.861-5.657-6.861c-3.13,0-5.175,2.348-5.175,6.018v18.415
	H1.34L1.34,82.301z"/>
<path fill="#DB1F26" d="M67.594,82.301V66.052c0-5.414-4.574-8.183-9.388-8.183c-5.837,0-9.508,4.635-9.508,10.109
	c0,5.357,3.912,9.869,9.447,9.869c3.008,0,5.476-1.686,7.282-3.971v6.259c-2.106,1.563-4.153,2.767-7.824,2.767
	c-8.305,0-14.201-6.859-14.201-15.345c0-8.243,5.656-14.745,14.924-14.745c8.906,0,14.563,5.417,14.563,13.722v15.767H67.594z"/>
<path fill="#FFFFFF" d="M77.703,95.3V68.7c0-9.508,6.076-15.886,14.562-15.886c9.389,0,14.925,7.221,14.925,15.767
	c0,8.063-6.5,14.322-13.901,14.322c-2.887,0-5.656-0.603-8.183-2.047v-5.535c1.924,1.323,4.873,2.526,7.28,2.526
	c5.718,0,9.509-3.971,9.509-9.929c0-5.897-3.973-10.051-9.63-10.051c-5.054,0-9.266,3.852-9.266,11.796V95.3H77.703z"/>
<g>
	<g>
		<path fill="#FFFFFF" d="M34.013,85.811h0.604v2.233c0.259-0.437,0.632-0.653,1.117-0.653c0.374,0,0.699,0.149,0.974,0.449
			c0.276,0.3,0.413,0.655,0.413,1.068c0,0.411-0.135,0.771-0.406,1.079c-0.27,0.307-0.586,0.462-0.946,0.462
			c-0.232,0-0.452-0.062-0.661-0.187c-0.208-0.123-0.373-0.292-0.492-0.505v0.611h-0.604L34.013,85.811L34.013,85.811z
			 M36.474,88.908c0-0.265-0.095-0.491-0.284-0.68c-0.19-0.189-0.42-0.282-0.688-0.282c-0.26,0-0.486,0.095-0.677,0.286
			c-0.19,0.19-0.286,0.415-0.286,0.676c0,0.271,0.096,0.5,0.286,0.687c0.191,0.186,0.426,0.278,0.705,0.278
			c0.257,0,0.479-0.095,0.666-0.285C36.381,89.4,36.474,89.172,36.474,88.908z"/>
		<path fill="#FFFFFF" d="M38.995,87.471h0.693l1.051,1.575l0.727-1.575h0.63l-1.956,4.258h-0.639l0.957-2.073L38.995,87.471z"/>
		<path fill="#FFFFFF" d="M50.511,87.471h0.611v2.898h-0.611v-0.577c-0.297,0.438-0.666,0.657-1.106,0.657
			c-0.382,0-0.708-0.149-0.978-0.448c-0.271-0.301-0.405-0.664-0.405-1.092c0-0.405,0.136-0.761,0.409-1.063
			c0.273-0.302,0.593-0.454,0.961-0.454c0.227,0,0.443,0.062,0.646,0.188c0.203,0.122,0.361,0.283,0.474,0.482V87.471L50.511,87.471
			z M50.595,88.928c0-0.264-0.095-0.49-0.285-0.679c-0.189-0.189-0.417-0.281-0.683-0.281c-0.258,0-0.483,0.092-0.675,0.279
			c-0.193,0.188-0.289,0.407-0.289,0.661c0,0.273,0.094,0.506,0.281,0.698c0.188,0.191,0.416,0.287,0.683,0.287
			c0.265,0,0.493-0.095,0.682-0.285C50.5,89.418,50.595,89.191,50.595,88.928z"/>
		<path fill="#FFFFFF" d="M56.123,85.811h0.604v4.558H56.13v-0.604c-0.289,0.458-0.666,0.685-1.132,0.685
			c-0.377,0-0.701-0.15-0.971-0.451c-0.27-0.303-0.404-0.666-0.404-1.09c0-0.414,0.137-0.772,0.411-1.07
			c0.274-0.299,0.602-0.448,0.981-0.448c0.228,0,0.439,0.063,0.637,0.191c0.196,0.125,0.354,0.291,0.472,0.493V85.811L56.123,85.811
			z M56.193,88.915c0-0.261-0.095-0.485-0.285-0.677c-0.189-0.19-0.416-0.286-0.679-0.286c-0.272,0-0.502,0.094-0.69,0.28
			c-0.189,0.186-0.283,0.413-0.283,0.683c0,0.257,0.096,0.482,0.289,0.675c0.192,0.193,0.416,0.29,0.671,0.29
			c0.272,0,0.503-0.093,0.692-0.279C56.098,89.412,56.193,89.184,56.193,88.915z"/>
		<path fill="#FFFFFF" d="M62.498,85.723l1.439,3.304l1.352-3.125h0.631l-1.982,4.607l-1.438-3.311l-1.44,3.311l-1.986-4.607h0.631
			l1.362,3.159L62.498,85.723z"/>
		<path fill="#FFFFFF" d="M68.048,86.52c0-0.127,0.047-0.236,0.141-0.329c0.093-0.092,0.206-0.138,0.333-0.138
			c0.126,0,0.235,0.046,0.329,0.138c0.093,0.093,0.139,0.202,0.139,0.329c0,0.13-0.046,0.238-0.139,0.331
			c-0.093,0.091-0.203,0.136-0.329,0.136c-0.128,0-0.24-0.045-0.333-0.136C68.095,86.758,68.048,86.649,68.048,86.52z M68.22,87.471
			h0.604v2.898H68.22V87.471z"/>
		<path fill="#FFFFFF" d="M71.59,86.63H72.2v0.841h0.603v0.56H72.2v2.339H71.59V88.03h-0.482v-0.566h0.482V86.63z"/>
	</g>
</g>
</svg>
