<?xml version="1.0" encoding="utf-8"?>
<!-- Generator: Adobe Illustrator 16.0.0, SVG Export Plug-In . SVG Version: 6.00 Build 0)  -->
<!DOCTYPE svg PUBLIC "-//W3C//DTD SVG 1.1//EN" "http://www.w3.org/Graphics/SVG/1.1/DTD/svg11.dtd">
<svg version="1.1"
	 id="svg2" xmlns:dc="http://purl.org/dc/elements/1.1/" xmlns:cc="http://creativecommons.org/ns#" xmlns:rdf="http://www.w3.org/1999/02/22-rdf-syntax-ns#" xmlns:svg="http://www.w3.org/2000/svg"
	 xmlns="http://www.w3.org/2000/svg" xmlns:xlink="http://www.w3.org/1999/xlink" x="0px" y="0px" width="108px" height="43.2px"
	 viewBox="20.62 10.36 108 43.2" enable-background="new 20.62 10.36 108 43.2" xml:space="preserve">
<g id="g10" transform="matrix(1.3333333,0,0,-1.3333333,0,63.92)">
	<g id="g12" transform="scale(0.1)">
		<path id="path14" fill="#231F20" d="M1320.588,1883.706c-12.59,0-24.192-3.091-34.849-9.25
			c-10.627-6.167-19.094-14.839-25.386-26.008c-6.292-11.14-9.434-22.947-9.434-35.405c0-12.319,3.164-24.133,9.507-35.398
			s14.868-20.046,25.562-26.331c10.701-6.277,22.178-9.426,34.424-9.426c12.363,0,24.082,3.127,35.156,9.346
			c11.052,6.24,19.592,14.663,25.569,25.276c5.955,10.627,8.943,22.581,8.943,35.911c0,20.266-6.694,37.222-20.083,50.845
			C1356.601,1876.879,1340.151,1883.706,1320.588,1883.706z M1411.276,1901.269v-175.92h-22.529v30.242
			c-9.485-11.543-20.105-20.2-31.897-25.928c-11.785-5.764-24.683-8.621-38.687-8.621c-24.851,0-46.084,8.987-63.699,27.012
			c-17.607,18.01-26.411,39.917-26.411,65.72c0,25.283,8.892,46.897,26.66,64.871c17.761,17.959,39.133,26.917,64.102,26.917
			c14.436,0,27.466-3.01,39.155-9.111c11.697-6.064,21.951-15.256,30.776-27.532v32.351H1411.276"/>
		<path id="path16" fill="#231F20" d="M1520.129,1883.706c-12.576,0-24.199-3.091-34.841-9.25
			c-10.635-6.167-19.102-14.839-25.393-26.008c-6.292-11.14-9.434-22.947-9.434-35.405c0-12.319,3.171-24.133,9.514-35.398
			s14.861-20.046,25.554-26.331c10.701-6.277,22.178-9.426,34.431-9.426c12.356,0,24.067,3.127,35.149,9.346
			c11.067,6.24,19.578,14.663,25.547,25.276c5.969,10.627,8.95,22.581,8.95,35.911c0,20.266-6.68,37.222-20.068,50.845
			C1556.142,1876.879,1539.677,1883.706,1520.129,1883.706z M1610.81,2087.959v-362.611h-22.529v30.242
			c-9.463-11.543-20.105-20.2-31.89-25.928c-11.792-5.764-24.69-8.621-38.672-8.621c-24.873,0-46.121,8.987-63.728,27.012
			c-17.6,18.01-26.389,39.917-26.389,65.72c0,25.283,8.877,46.897,26.646,64.871c17.761,17.959,39.141,26.917,64.109,26.917
			c14.429,0,27.488-3.069,39.163-9.214c11.682-6.138,21.943-15.381,30.762-27.656v219.269H1610.81"/>
		<path id="path18" fill="#231F20" d="M1955.349,1899.401h22.544v-174.382h-22.544V1899.401z M1966.54,2088.56
			c5.134,0,9.514-1.831,13.176-5.504c3.625-3.684,5.457-8.112,5.457-13.301c0-5.076-1.831-9.456-5.457-13.11
			c-3.662-3.691-8.042-5.534-13.176-5.534c-5.046,0-9.382,1.842-13.015,5.534c-3.655,3.655-5.457,8.035-5.457,13.11
			c0,5.189,1.802,9.617,5.457,13.301C1957.158,2086.729,1961.494,2088.56,1966.54,2088.56"/>
		<path id="path20" fill="#231F20" d="M2030.283,2087.959h22.536v-188.485h35.779v-19.563h-35.779v-154.937h-22.536v154.937h-30.798
			v19.563h30.798V2087.959"/>
		<path id="path22" fill="#DB1F26" d="M1777.26,2087.959h5.442l76.487-233.609l50.742,233.609h26.917l-74.81-313.202l-5.186-0.293
			l-77.256,234.412l-80.654-234.119l-5.2,0.3l-70.803,312.901h26.917l50.735-233.609l76.509,233.609h5.435H1777.26"/>
		<path id="path24" fill="#231F20" d="M1647.988,1747.746c-1.165,1.838-2.6,3.23-4.307,4.182s-3.625,1.428-5.757,1.428
			c-3.574,0-6.475-1.238-8.716-3.684s-3.362-5.64-3.362-9.558c0-1.743,0.3-3.391,0.886-4.944c0.601-1.553,1.479-2.93,2.607-4.138
			c1.157-1.179,2.446-2.065,3.875-2.666c1.436-0.593,3.003-0.886,4.709-0.886c3.223,0,5.845,0.967,7.874,2.908
			c2.029,1.926,3.062,4.468,3.12,7.581h-9.939v2.307h12.817v-0.322c0-4.666-1.267-8.328-3.772-10.964
			c-2.498-2.648-5.94-3.97-10.342-3.97c-4.373,0-7.896,1.414-10.605,4.241c-2.695,2.834-4.05,6.544-4.05,11.14
			c0,2.109,0.344,4.094,1.025,5.984c0.688,1.875,1.663,3.501,2.952,4.896c1.392,1.516,2.966,2.637,4.709,3.384
			c1.75,0.747,3.706,1.121,5.852,1.121c2.922,0,5.435-0.542,7.522-1.604c2.08-1.084,3.684-2.651,4.819-4.746L1647.988,1747.746z
			 M1691.333,1725.795v29.319h2.622v-26.821h9.866v-2.498H1691.333z M1754.614,1727.407c1.707,0,3.318,0.322,4.849,0.959
			c1.516,0.63,2.886,1.575,4.116,2.805c1.187,1.238,2.095,2.651,2.725,4.241c0.652,1.575,0.959,3.237,0.959,4.988
			c0,1.758-0.315,3.42-0.945,4.995c-0.63,1.567-1.538,2.974-2.739,4.233c-1.201,1.23-2.571,2.168-4.087,2.805
			c-1.531,0.637-3.157,0.952-4.878,0.952c-1.714,0-3.318-0.315-4.827-0.952s-2.878-1.575-4.102-2.805
			c-1.201-1.274-2.117-2.673-2.747-4.233s-0.945-3.223-0.945-4.995c0-1.758,0.315-3.428,0.945-4.988
			c0.63-1.575,1.545-2.988,2.747-4.241c1.216-1.238,2.563-2.175,4.065-2.813C1751.245,1727.714,1752.871,1727.407,1754.614,1727.407
			L1754.614,1727.407z M1770.046,1740.4c0-2.073-0.388-4.036-1.165-5.903c-0.769-1.86-1.882-3.523-3.347-4.973
			c-1.479-1.472-3.149-2.578-5.01-3.354c-1.868-0.762-3.845-1.15-5.911-1.15c-2.073,0-4.043,0.388-5.889,1.15
			c-1.868,0.776-3.53,1.882-5.002,3.354c-1.472,1.487-2.585,3.149-3.354,4.995c-0.769,1.86-1.157,3.809-1.157,5.881
			c0,2.095,0.388,4.072,1.157,5.94c0.769,1.86,1.882,3.53,3.354,5.024c1.443,1.443,3.098,2.549,4.944,3.296
			c1.853,0.747,3.838,1.121,5.947,1.121c2.124,0,4.116-0.374,5.977-1.135c1.853-0.754,3.508-1.853,4.944-3.281
			c1.472-1.494,2.585-3.164,3.354-5.024C1769.665,1744.472,1770.046,1742.495,1770.046,1740.4z M1812.483,1742.077h3.267
			c2.395,0,4.094,0.41,5.083,1.201c0.989,0.806,1.487,2.139,1.487,4.014c0,2.007-0.491,3.435-1.443,4.255
			c-0.967,0.82-2.673,1.245-5.127,1.245h-3.267V1742.077z M1812.483,1728.103h3.347c1.897,0,3.208,0.081,3.926,0.242
			s1.34,0.432,1.831,0.82c0.615,0.476,1.106,1.135,1.487,1.992c0.359,0.85,0.542,1.75,0.542,2.71c0,1.187-0.205,2.219-0.615,3.098
			c-0.396,0.879-0.967,1.553-1.692,1.992c-0.491,0.3-1.077,0.505-1.758,0.63c-0.667,0.132-1.721,0.19-3.157,0.19h-3.911V1728.103z
			 M1809.86,1725.795v29.319h5.01c2.183,0,3.765-0.11,4.731-0.322c0.974-0.205,1.802-0.579,2.483-1.099
			c0.952-0.732,1.685-1.633,2.183-2.688c0.498-1.062,0.747-2.241,0.747-3.516c0-1.567-0.403-2.893-1.208-3.984
			c-0.791-1.099-1.897-1.824-3.296-2.168c1.853-0.271,3.289-1.033,4.343-2.263s1.575-2.783,1.575-4.673
			c0-1.362-0.205-2.585-0.615-3.655c-0.403-1.077-1.018-1.985-1.838-2.761c-0.842-0.806-1.86-1.37-3.032-1.692
			c-1.187-0.337-3.201-0.498-6.042-0.498H1809.86z M1869.604,1738.012h10.027l-4.915,12.759L1869.604,1738.012z M1862.251,1725.795
			l12.649,30.483l12.107-30.483h-2.849l-3.677,9.932h-11.755l-3.823-9.932H1862.251z M1924.272,1725.795v29.319h2.622v-26.821h9.866
			v-2.498H1924.272"/>
	</g>
</g>
<g>
	<path fill="#FFFFFF" d="M22.003,40.205V20.587c0-5.414,4.453-9.867,10.351-9.867c3.25,0,6.5,1.324,8.426,4.092
		c1.925-2.768,5.174-4.092,8.424-4.092c5.896,0,10.351,4.453,10.351,9.867v19.618h-5.295V21.79c0-3.67-2.046-6.018-5.175-6.018
		c-3.431,0-5.657,1.927-5.657,6.861v17.57h-5.295v-17.57c0-4.936-2.227-6.861-5.657-6.861c-3.13,0-5.175,2.348-5.175,6.018v18.415
		H22.003L22.003,40.205z"/>
	<path fill="#DB1F26" d="M88.257,40.205V23.956c0-5.414-4.574-8.183-9.388-8.183c-5.837,0-9.508,4.635-9.508,10.108
		c0,5.357,3.911,9.869,9.446,9.869c3.008,0,5.477-1.686,7.282-3.971v6.259c-2.106,1.563-4.153,2.767-7.824,2.767
		c-8.305,0-14.201-6.858-14.201-15.344c0-8.244,5.656-14.746,14.925-14.746c8.905,0,14.563,5.418,14.563,13.723v15.767H88.257z"/>
	<path fill="#FFFFFF" d="M98.366,53.204v-26.6c0-9.508,6.075-15.887,14.562-15.887c9.389,0,14.925,7.222,14.925,15.768
		c0,8.063-6.5,14.322-13.9,14.322c-2.888,0-5.656-0.604-8.184-2.047v-5.535c1.924,1.322,4.873,2.525,7.28,2.525
		c5.718,0,9.509-3.971,9.509-9.929c0-5.897-3.973-10.051-9.63-10.051c-5.054,0-9.266,3.852-9.266,11.796v25.637H98.366z"/>
	<g>
		<g>
			<path fill="#FFFFFF" d="M54.676,43.716h0.604v2.232c0.259-0.438,0.632-0.652,1.116-0.652c0.374,0,0.699,0.148,0.975,0.448
				s0.413,0.655,0.413,1.068c0,0.411-0.136,0.771-0.406,1.079c-0.271,0.307-0.586,0.462-0.946,0.462
				c-0.231,0-0.452-0.062-0.661-0.187c-0.208-0.123-0.373-0.293-0.491-0.506v0.611h-0.604L54.676,43.716L54.676,43.716z
				 M57.137,46.813c0-0.265-0.095-0.491-0.284-0.681c-0.189-0.188-0.42-0.281-0.688-0.281c-0.26,0-0.486,0.095-0.677,0.285
				s-0.286,0.416-0.286,0.677c0,0.271,0.096,0.5,0.286,0.687s0.426,0.278,0.704,0.278c0.258,0,0.479-0.095,0.666-0.285
				C57.044,47.304,57.137,47.076,57.137,46.813z"/>
			<path fill="#FFFFFF" d="M59.658,45.376h0.692l1.051,1.574l0.728-1.574h0.63l-1.956,4.258h-0.639l0.957-2.073L59.658,45.376z"/>
			<path fill="#FFFFFF" d="M71.174,45.376h0.611v2.897h-0.611v-0.577c-0.297,0.438-0.666,0.657-1.106,0.657
				c-0.382,0-0.708-0.149-0.978-0.448c-0.271-0.301-0.405-0.664-0.405-1.092c0-0.405,0.137-0.762,0.409-1.063
				c0.273-0.303,0.593-0.455,0.961-0.455c0.228,0,0.443,0.063,0.646,0.188c0.203,0.122,0.36,0.282,0.474,0.481L71.174,45.376
				L71.174,45.376z M71.258,46.832c0-0.264-0.095-0.489-0.285-0.679c-0.188-0.189-0.417-0.281-0.683-0.281
				c-0.258,0-0.483,0.092-0.675,0.279c-0.193,0.188-0.289,0.406-0.289,0.661c0,0.272,0.094,0.506,0.28,0.698
				c0.188,0.19,0.416,0.287,0.684,0.287c0.265,0,0.493-0.096,0.682-0.285C71.163,47.322,71.258,47.095,71.258,46.832z"/>
			<path fill="#FFFFFF" d="M76.786,43.716h0.604v4.558h-0.597v-0.604c-0.289,0.459-0.666,0.686-1.132,0.686
				c-0.377,0-0.701-0.15-0.972-0.451c-0.27-0.303-0.403-0.666-0.403-1.09c0-0.414,0.137-0.771,0.411-1.07
				c0.273-0.299,0.602-0.447,0.98-0.447c0.229,0,0.439,0.063,0.637,0.19c0.196,0.125,0.354,0.291,0.473,0.493L76.786,43.716
				L76.786,43.716z M76.856,46.819c0-0.262-0.095-0.484-0.284-0.678c-0.189-0.189-0.416-0.285-0.68-0.285
				c-0.271,0-0.502,0.094-0.689,0.279c-0.189,0.187-0.283,0.414-0.283,0.684c0,0.257,0.096,0.482,0.289,0.675
				c0.191,0.193,0.416,0.29,0.671,0.29c0.271,0,0.503-0.093,0.692-0.279C76.761,47.316,76.856,47.089,76.856,46.819z"/>
			<path fill="#FFFFFF" d="M83.161,43.628l1.438,3.303l1.353-3.125h0.631l-1.982,4.607l-1.438-3.311l-1.44,3.311l-1.985-4.607h0.631
				l1.361,3.16L83.161,43.628z"/>
			<path fill="#FFFFFF" d="M88.711,44.425c0-0.127,0.047-0.236,0.141-0.33c0.094-0.092,0.206-0.138,0.333-0.138
				c0.126,0,0.235,0.046,0.329,0.138c0.093,0.094,0.14,0.203,0.14,0.33c0,0.129-0.047,0.237-0.14,0.33
				c-0.093,0.092-0.203,0.137-0.329,0.137c-0.128,0-0.239-0.045-0.333-0.137C88.758,44.662,88.711,44.554,88.711,44.425z
				 M88.883,45.376h0.604v2.897h-0.604V45.376z"/>
			<path fill="#FFFFFF" d="M92.253,44.534h0.61v0.842h0.603v0.56h-0.603v2.339h-0.61v-2.34h-0.482v-0.566h0.482V44.534z"/>
		</g>
	</g>
</g>
</svg>
